<mxfile host="app.diagrams.net" modified="2023-08-11T16:45:15.380Z" agent="Mozilla/5.0 (Windows NT 10.0; Win64; x64) AppleWebKit/537.36 (KHTML, like Gecko) Chrome/114.0.0.0 Safari/537.36 OPR/100.0.0.0" etag="uCeIlHOUqGhWswBbYUCq" version="21.6.6">
  <diagram name="Página-1" id="z8zfpMKEIv5o564LaMZI">
    <mxGraphModel dx="1168" dy="541" grid="1" gridSize="10" guides="1" tooltips="1" connect="1" arrows="1" fold="1" page="1" pageScale="1" pageWidth="827" pageHeight="1169" math="0" shadow="0">
      <root>
        <mxCell id="0" />
        <mxCell id="1" parent="0" />
        <mxCell id="RfhYnMLwMpdaEVoP4VuN-1" value="prestar" style="rhombus;whiteSpace=wrap;html=1;" vertex="1" parent="1">
          <mxGeometry x="334" y="190" width="80" height="80" as="geometry" />
        </mxCell>
        <mxCell id="RfhYnMLwMpdaEVoP4VuN-2" value="" style="endArrow=none;html=1;rounded=0;entryX=0;entryY=0.5;entryDx=0;entryDy=0;" edge="1" parent="1" target="RfhYnMLwMpdaEVoP4VuN-1">
          <mxGeometry width="50" height="50" relative="1" as="geometry">
            <mxPoint x="240" y="230" as="sourcePoint" />
            <mxPoint x="280" y="220" as="targetPoint" />
          </mxGeometry>
        </mxCell>
        <mxCell id="RfhYnMLwMpdaEVoP4VuN-3" value="Usuario" style="rounded=0;whiteSpace=wrap;html=1;" vertex="1" parent="1">
          <mxGeometry x="140" y="215" width="100" height="30" as="geometry" />
        </mxCell>
        <mxCell id="RfhYnMLwMpdaEVoP4VuN-5" value="Libros" style="rounded=0;whiteSpace=wrap;html=1;" vertex="1" parent="1">
          <mxGeometry x="510" y="215" width="100" height="30" as="geometry" />
        </mxCell>
        <mxCell id="RfhYnMLwMpdaEVoP4VuN-6" value="" style="endArrow=none;html=1;rounded=0;entryX=0;entryY=0.5;entryDx=0;entryDy=0;" edge="1" parent="1">
          <mxGeometry width="50" height="50" relative="1" as="geometry">
            <mxPoint x="414" y="229.5" as="sourcePoint" />
            <mxPoint x="508" y="229.5" as="targetPoint" />
          </mxGeometry>
        </mxCell>
        <mxCell id="RfhYnMLwMpdaEVoP4VuN-7" value="ID" style="ellipse;whiteSpace=wrap;html=1;" vertex="1" parent="1">
          <mxGeometry x="70" y="155" width="40" height="30" as="geometry" />
        </mxCell>
        <mxCell id="RfhYnMLwMpdaEVoP4VuN-8" value="Nombre" style="ellipse;whiteSpace=wrap;html=1;" vertex="1" parent="1">
          <mxGeometry x="120" y="130" width="60" height="40" as="geometry" />
        </mxCell>
        <mxCell id="RfhYnMLwMpdaEVoP4VuN-9" value="Apellido" style="ellipse;whiteSpace=wrap;html=1;" vertex="1" parent="1">
          <mxGeometry x="40" y="245" width="70" height="40" as="geometry" />
        </mxCell>
        <mxCell id="RfhYnMLwMpdaEVoP4VuN-10" value="" style="ellipse;whiteSpace=wrap;html=1;" vertex="1" parent="1">
          <mxGeometry x="200" y="140" width="80" height="50" as="geometry" />
        </mxCell>
        <mxCell id="RfhYnMLwMpdaEVoP4VuN-11" value="Gmail" style="ellipse;whiteSpace=wrap;html=1;" vertex="1" parent="1">
          <mxGeometry x="180" y="285" width="80" height="50" as="geometry" />
        </mxCell>
        <mxCell id="RfhYnMLwMpdaEVoP4VuN-12" value="DNI" style="ellipse;whiteSpace=wrap;html=1;" vertex="1" parent="1">
          <mxGeometry x="90" y="295" width="60" height="40" as="geometry" />
        </mxCell>
        <mxCell id="RfhYnMLwMpdaEVoP4VuN-14" value="Telefono" style="ellipse;whiteSpace=wrap;html=1;" vertex="1" parent="1">
          <mxGeometry x="210" y="145" width="60" height="40" as="geometry" />
        </mxCell>
        <mxCell id="RfhYnMLwMpdaEVoP4VuN-15" value="" style="endArrow=none;html=1;rounded=0;entryX=0;entryY=1;entryDx=0;entryDy=0;exitX=0.75;exitY=0;exitDx=0;exitDy=0;" edge="1" parent="1" source="RfhYnMLwMpdaEVoP4VuN-3" target="RfhYnMLwMpdaEVoP4VuN-14">
          <mxGeometry width="50" height="50" relative="1" as="geometry">
            <mxPoint x="200" y="215" as="sourcePoint" />
            <mxPoint x="240" y="180" as="targetPoint" />
          </mxGeometry>
        </mxCell>
        <mxCell id="RfhYnMLwMpdaEVoP4VuN-16" value="" style="endArrow=none;html=1;rounded=0;entryX=0.39;entryY=0.984;entryDx=0;entryDy=0;entryPerimeter=0;exitX=0.5;exitY=0;exitDx=0;exitDy=0;" edge="1" parent="1" source="RfhYnMLwMpdaEVoP4VuN-3" target="RfhYnMLwMpdaEVoP4VuN-8">
          <mxGeometry width="50" height="50" relative="1" as="geometry">
            <mxPoint x="187.5" y="203" as="sourcePoint" />
            <mxPoint x="212.5" y="160" as="targetPoint" />
          </mxGeometry>
        </mxCell>
        <mxCell id="RfhYnMLwMpdaEVoP4VuN-17" value="" style="endArrow=none;html=1;rounded=0;entryX=1;entryY=1;entryDx=0;entryDy=0;exitX=0;exitY=0;exitDx=0;exitDy=0;" edge="1" parent="1" source="RfhYnMLwMpdaEVoP4VuN-3" target="RfhYnMLwMpdaEVoP4VuN-7">
          <mxGeometry width="50" height="50" relative="1" as="geometry">
            <mxPoint x="115" y="223" as="sourcePoint" />
            <mxPoint x="140" y="180" as="targetPoint" />
          </mxGeometry>
        </mxCell>
        <mxCell id="RfhYnMLwMpdaEVoP4VuN-18" value="" style="endArrow=none;html=1;rounded=0;entryX=0;entryY=0.25;entryDx=0;entryDy=0;exitX=0.5;exitY=0;exitDx=0;exitDy=0;" edge="1" parent="1" source="RfhYnMLwMpdaEVoP4VuN-9" target="RfhYnMLwMpdaEVoP4VuN-3">
          <mxGeometry width="50" height="50" relative="1" as="geometry">
            <mxPoint x="115" y="273" as="sourcePoint" />
            <mxPoint x="140" y="230" as="targetPoint" />
          </mxGeometry>
        </mxCell>
        <mxCell id="RfhYnMLwMpdaEVoP4VuN-20" value="" style="endArrow=none;html=1;rounded=0;entryX=0.5;entryY=1;entryDx=0;entryDy=0;exitX=0.5;exitY=0;exitDx=0;exitDy=0;" edge="1" parent="1" source="RfhYnMLwMpdaEVoP4VuN-12" target="RfhYnMLwMpdaEVoP4VuN-3">
          <mxGeometry width="50" height="50" relative="1" as="geometry">
            <mxPoint x="175" y="290" as="sourcePoint" />
            <mxPoint x="200" y="247" as="targetPoint" />
          </mxGeometry>
        </mxCell>
        <mxCell id="RfhYnMLwMpdaEVoP4VuN-21" value="" style="endArrow=none;html=1;rounded=0;entryX=0.75;entryY=1;entryDx=0;entryDy=0;exitX=0;exitY=0;exitDx=0;exitDy=0;" edge="1" parent="1" source="RfhYnMLwMpdaEVoP4VuN-11" target="RfhYnMLwMpdaEVoP4VuN-3">
          <mxGeometry width="50" height="50" relative="1" as="geometry">
            <mxPoint x="187.5" y="293" as="sourcePoint" />
            <mxPoint x="212.5" y="250" as="targetPoint" />
          </mxGeometry>
        </mxCell>
        <mxCell id="RfhYnMLwMpdaEVoP4VuN-22" value="" style="endArrow=none;html=1;rounded=0;" edge="1" parent="1">
          <mxGeometry width="50" height="50" relative="1" as="geometry">
            <mxPoint x="80" y="180" as="sourcePoint" />
            <mxPoint x="100" y="180" as="targetPoint" />
            <Array as="points" />
          </mxGeometry>
        </mxCell>
        <mxCell id="RfhYnMLwMpdaEVoP4VuN-24" value="Editorial" style="ellipse;whiteSpace=wrap;html=1;" vertex="1" parent="1">
          <mxGeometry x="610" y="180" width="50" height="30" as="geometry" />
        </mxCell>
        <mxCell id="RfhYnMLwMpdaEVoP4VuN-25" value="Año de escritura" style="ellipse;whiteSpace=wrap;html=1;" vertex="1" parent="1">
          <mxGeometry x="490" y="265" width="70" height="40" as="geometry" />
        </mxCell>
        <mxCell id="RfhYnMLwMpdaEVoP4VuN-26" value="" style="ellipse;whiteSpace=wrap;html=1;" vertex="1" parent="1">
          <mxGeometry x="640" y="230" width="70" height="40" as="geometry" />
        </mxCell>
        <mxCell id="RfhYnMLwMpdaEVoP4VuN-27" value="Titulo" style="ellipse;whiteSpace=wrap;html=1;" vertex="1" parent="1">
          <mxGeometry x="550" y="160" width="50" height="30" as="geometry" />
        </mxCell>
        <mxCell id="RfhYnMLwMpdaEVoP4VuN-28" value="Dirección" style="ellipse;whiteSpace=wrap;html=1;" vertex="1" parent="1">
          <mxGeometry x="90" y="295" width="70" height="40" as="geometry" />
        </mxCell>
        <mxCell id="RfhYnMLwMpdaEVoP4VuN-29" value="Año de Edición" style="ellipse;whiteSpace=wrap;html=1;" vertex="1" parent="1">
          <mxGeometry x="600" y="270" width="60" height="30" as="geometry" />
        </mxCell>
        <mxCell id="RfhYnMLwMpdaEVoP4VuN-30" value="Autor" style="ellipse;whiteSpace=wrap;html=1;" vertex="1" parent="1">
          <mxGeometry x="650" y="235" width="50" height="30" as="geometry" />
        </mxCell>
        <mxCell id="RfhYnMLwMpdaEVoP4VuN-31" value="" style="endArrow=none;html=1;rounded=0;exitX=0.687;exitY=0.026;exitDx=0;exitDy=0;exitPerimeter=0;entryX=0.25;entryY=1;entryDx=0;entryDy=0;" edge="1" parent="1" source="RfhYnMLwMpdaEVoP4VuN-25" target="RfhYnMLwMpdaEVoP4VuN-5">
          <mxGeometry width="50" height="50" relative="1" as="geometry">
            <mxPoint x="517" y="285" as="sourcePoint" />
            <mxPoint x="560" y="250" as="targetPoint" />
          </mxGeometry>
        </mxCell>
        <mxCell id="RfhYnMLwMpdaEVoP4VuN-32" value="" style="endArrow=none;html=1;rounded=0;exitX=0.5;exitY=0;exitDx=0;exitDy=0;entryX=0.895;entryY=0.969;entryDx=0;entryDy=0;entryPerimeter=0;" edge="1" parent="1" source="RfhYnMLwMpdaEVoP4VuN-29" target="RfhYnMLwMpdaEVoP4VuN-5">
          <mxGeometry width="50" height="50" relative="1" as="geometry">
            <mxPoint x="580" y="265" as="sourcePoint" />
            <mxPoint x="590" y="250" as="targetPoint" />
          </mxGeometry>
        </mxCell>
        <mxCell id="RfhYnMLwMpdaEVoP4VuN-33" value="" style="endArrow=none;html=1;rounded=0;entryX=0.338;entryY=0.959;entryDx=0;entryDy=0;exitX=0.387;exitY=0.009;exitDx=0;exitDy=0;entryPerimeter=0;exitPerimeter=0;" edge="1" parent="1" source="RfhYnMLwMpdaEVoP4VuN-5" target="RfhYnMLwMpdaEVoP4VuN-27">
          <mxGeometry width="50" height="50" relative="1" as="geometry">
            <mxPoint x="560" y="210" as="sourcePoint" />
            <mxPoint x="575" y="194" as="targetPoint" />
          </mxGeometry>
        </mxCell>
        <mxCell id="RfhYnMLwMpdaEVoP4VuN-34" value="" style="endArrow=none;html=1;rounded=0;exitX=0;exitY=0.5;exitDx=0;exitDy=0;entryX=1;entryY=0.75;entryDx=0;entryDy=0;" edge="1" parent="1" source="RfhYnMLwMpdaEVoP4VuN-26" target="RfhYnMLwMpdaEVoP4VuN-5">
          <mxGeometry width="50" height="50" relative="1" as="geometry">
            <mxPoint x="620" y="295" as="sourcePoint" />
            <mxPoint x="610" y="254" as="targetPoint" />
          </mxGeometry>
        </mxCell>
        <mxCell id="RfhYnMLwMpdaEVoP4VuN-35" value="" style="endArrow=none;html=1;rounded=0;exitX=0;exitY=1;exitDx=0;exitDy=0;entryX=1;entryY=0;entryDx=0;entryDy=0;" edge="1" parent="1" source="RfhYnMLwMpdaEVoP4VuN-24" target="RfhYnMLwMpdaEVoP4VuN-5">
          <mxGeometry width="50" height="50" relative="1" as="geometry">
            <mxPoint x="548" y="276" as="sourcePoint" />
            <mxPoint x="545" y="255" as="targetPoint" />
          </mxGeometry>
        </mxCell>
        <mxCell id="RfhYnMLwMpdaEVoP4VuN-36" value="" style="rounded=0;whiteSpace=wrap;html=1;" vertex="1" parent="1">
          <mxGeometry x="522.93" y="425" width="110" height="50" as="geometry" />
        </mxCell>
        <mxCell id="RfhYnMLwMpdaEVoP4VuN-37" value="" style="rhombus;whiteSpace=wrap;html=1;" vertex="1" parent="1">
          <mxGeometry x="527.66" y="320" width="102.34" height="90" as="geometry" />
        </mxCell>
        <mxCell id="RfhYnMLwMpdaEVoP4VuN-38" value="Ejemplares" style="rounded=0;whiteSpace=wrap;html=1;" vertex="1" parent="1">
          <mxGeometry x="535.24" y="437.5" width="87.18" height="25" as="geometry" />
        </mxCell>
        <mxCell id="RfhYnMLwMpdaEVoP4VuN-39" value="Ejemplar X&amp;nbsp;&lt;br&gt;Libro" style="rhombus;whiteSpace=wrap;html=1;" vertex="1" parent="1">
          <mxGeometry x="545.87" y="335" width="64.13" height="55" as="geometry" />
        </mxCell>
        <mxCell id="RfhYnMLwMpdaEVoP4VuN-40" value="" style="endArrow=none;html=1;rounded=0;exitX=0.5;exitY=0;exitDx=0;exitDy=0;entryX=0.5;entryY=1;entryDx=0;entryDy=0;" edge="1" parent="1" source="RfhYnMLwMpdaEVoP4VuN-36" target="RfhYnMLwMpdaEVoP4VuN-37">
          <mxGeometry width="50" height="50" relative="1" as="geometry">
            <mxPoint x="548" y="276" as="sourcePoint" />
            <mxPoint x="580" y="270" as="targetPoint" />
          </mxGeometry>
        </mxCell>
        <mxCell id="RfhYnMLwMpdaEVoP4VuN-41" value="" style="endArrow=none;html=1;rounded=0;exitX=0.5;exitY=0;exitDx=0;exitDy=0;entryX=0.5;entryY=1;entryDx=0;entryDy=0;" edge="1" parent="1" source="RfhYnMLwMpdaEVoP4VuN-37" target="RfhYnMLwMpdaEVoP4VuN-5">
          <mxGeometry width="50" height="50" relative="1" as="geometry">
            <mxPoint x="548" y="276" as="sourcePoint" />
            <mxPoint x="545" y="255" as="targetPoint" />
          </mxGeometry>
        </mxCell>
        <mxCell id="RfhYnMLwMpdaEVoP4VuN-42" value="Recomendaciiones" style="ellipse;whiteSpace=wrap;html=1;" vertex="1" parent="1">
          <mxGeometry x="540" y="500" width="110" height="27.5" as="geometry" />
        </mxCell>
        <mxCell id="RfhYnMLwMpdaEVoP4VuN-43" value="Número" style="ellipse;whiteSpace=wrap;html=1;" vertex="1" parent="1">
          <mxGeometry x="660" y="462.5" width="60" height="30" as="geometry" />
        </mxCell>
        <mxCell id="RfhYnMLwMpdaEVoP4VuN-44" value="" style="endArrow=none;html=1;rounded=0;entryX=0.5;entryY=1;entryDx=0;entryDy=0;exitX=0.5;exitY=0;exitDx=0;exitDy=0;" edge="1" parent="1" source="RfhYnMLwMpdaEVoP4VuN-42" target="RfhYnMLwMpdaEVoP4VuN-36">
          <mxGeometry width="50" height="50" relative="1" as="geometry">
            <mxPoint x="430" y="470" as="sourcePoint" />
            <mxPoint x="480" y="420" as="targetPoint" />
          </mxGeometry>
        </mxCell>
        <mxCell id="RfhYnMLwMpdaEVoP4VuN-45" value="" style="endArrow=none;html=1;rounded=0;entryX=1;entryY=0.75;entryDx=0;entryDy=0;exitX=0;exitY=0.5;exitDx=0;exitDy=0;" edge="1" parent="1" source="RfhYnMLwMpdaEVoP4VuN-43" target="RfhYnMLwMpdaEVoP4VuN-36">
          <mxGeometry width="50" height="50" relative="1" as="geometry">
            <mxPoint x="430" y="470" as="sourcePoint" />
            <mxPoint x="480" y="420" as="targetPoint" />
          </mxGeometry>
        </mxCell>
      </root>
    </mxGraphModel>
  </diagram>
</mxfile>
